<?xml version="1.0" encoding="UTF-8" standalone="no"?>
<!-- Created with Inkscape (http://www.inkscape.org/) -->

<svg
   xmlns:dc="http://purl.org/dc/elements/1.1/"
   xmlns:cc="http://creativecommons.org/ns#"
   xmlns:rdf="http://www.w3.org/1999/02/22-rdf-syntax-ns#"
   xmlns:svg="http://www.w3.org/2000/svg"
   xmlns="http://www.w3.org/2000/svg"
   xmlns:sodipodi="http://sodipodi.sourceforge.net/DTD/sodipodi-0.dtd"
   xmlns:inkscape="http://www.inkscape.org/namespaces/inkscape"
   width="1920"
   height="1080"
   viewBox="0 0 507.99998 285.75001"
   version="1.1"
   id="svg4556"
   sodipodi:docname="recyclage.svg"
   inkscape:version="0.92.3 (2405546, 2018-03-11)">
  <defs
     id="defs4550">
    <inkscape:path-effect
       effect="skeletal"
       id="path-effect4660"
       is_visible="true"
       pattern="M 0,5 C 0,2.24 2.24,0 5,0 7.76,0 10,2.24 10,5 10,7.76 7.76,10 5,10 2.24,10 0,7.76 0,5 Z"
       copytype="single_stretched"
       prop_scale="0.26458332"
       scale_y_rel="false"
       spacing="0"
       normal_offset="0"
       tang_offset="0"
       prop_units="false"
       vertical_pattern="false"
       fuse_tolerance="0" />
    <inkscape:perspective
       sodipodi:type="inkscape:persp3d"
       inkscape:vp_x="38.434137 : 123.07559 : 1"
       inkscape:vp_y="0 : 1000 : 0"
       inkscape:vp_z="546.43412 : 123.07559 : 1"
       inkscape:persp3d-origin="292.43413 : 75.450598 : 1"
       id="perspective4613" />
    <inkscape:path-effect
       effect="skeletal"
       id="path-effect819"
       is_visible="true"
       pattern="M 0,5 C 0,2.24 2.24,0 5,0 7.76,0 10,2.24 10,5 10,7.76 7.76,10 5,10 2.24,10 0,7.76 0,5 Z"
       copytype="single_stretched"
       prop_scale="0.26458332"
       scale_y_rel="false"
       spacing="0"
       normal_offset="0"
       tang_offset="0"
       prop_units="false"
       vertical_pattern="false"
       fuse_tolerance="0" />
  </defs>
  <sodipodi:namedview
     id="base"
     pagecolor="#ffffff"
     bordercolor="#666666"
     borderopacity="1.0"
     inkscape:pageopacity="0.0"
     inkscape:pageshadow="2"
     inkscape:zoom="0.86667667"
     inkscape:cx="595.38441"
     inkscape:cy="432.94076"
     inkscape:document-units="mm"
     inkscape:current-layer="g825"
     showgrid="false"
     units="px"
     inkscape:window-width="1360"
     inkscape:window-height="715"
     inkscape:window-x="-8"
     inkscape:window-y="-8"
     inkscape:window-maximized="1"
     inkscape:snap-global="false" />
  <metadata
     id="metadata4553">
    <rdf:RDF>
      <cc:Work
         rdf:about="">
        <dc:format>image/svg+xml</dc:format>
        <dc:type
           rdf:resource="http://purl.org/dc/dcmitype/StillImage" />
        <dc:title></dc:title>
      </cc:Work>
    </rdf:RDF>
  </metadata>
  <g
     inkscape:label="Calque 1"
     inkscape:groupmode="layer"
     id="layer1"
     transform="translate(0,-11.24999)"
     style="display:inline">
    <circle
       style="opacity:1;fill:none;fill-opacity:1;stroke:#88b87e;stroke-width:50;stroke-linecap:round;stroke-linejoin:round;stroke-miterlimit:4;stroke-dasharray:none;stroke-dashoffset:0;stroke-opacity:1;paint-order:stroke fill markers"
       id="path821"
       cx="255.13393"
       cy="160.55058"
       r="109.23512" />
    <path
       style="fill:#ff0000;fill-opacity:1;fill-rule:nonzero;stroke:none"
       id="path4676"
       d="m 123.95675,184.62269 c -0.28844,0.16493 -0.6581,0.36438 -0.93694,0.56185 -0.15381,0.10894 -0.35961,0.38701 -0.34144,0.2586 0.047,-0.3321 0.0561,-0.73736 0.30905,-0.9576 0.17237,-0.15007 0.002,0.45708 0.003,0.68562 0.008,-0.008 0.0262,-0.0345 0.0228,-0.024 -0.0424,0.13223 -0.0988,0.25972 -0.14093,0.39206 -0.0156,0.0492 -0.0149,0.10277 -0.0319,0.1515 -0.20114,0.57646 -0.10083,0.15021 -0.17753,0.51258 -0.31291,1.47833 -1.89441,1.06013 -1.47532,-0.39168 v 0 c 0.0362,-0.12558 0.0725,-0.25117 0.10875,-0.37675 0.0238,-0.0486 0.0535,-0.0947 0.0715,-0.14578 0.0431,-0.12244 0.0645,-0.25208 0.11119,-0.37321 0.004,-0.0113 0.0178,0.0412 0.0212,0.0295 0.0296,-0.10113 0.0407,-0.20681 0.061,-0.31021 0.0202,0.17766 -0.0381,0.68209 0.0606,0.53297 0.19661,-0.29711 0.17986,-0.68947 0.27089,-1.03392 0.0331,-0.12516 0.20144,-0.16296 0.30728,-0.23749 0.2933,-0.20654 0.6624,-0.40669 0.9711,-0.58297 1.3122,-0.74933 2.09712,0.55884 0.78534,1.3089 z"
       inkscape:connector-curvature="0" />
    <path
       style="fill:#ff0000;fill-opacity:1;fill-rule:nonzero;stroke:none;stroke-width:3.77952766"
       d="M 468.06836 649.48242 C 467.31768 649.53183 466.4592 649.78929 465.5293 650.32031 C 464.36256 650.98657 462.96596 651.74281 461.85742 652.52344 C 461.4574 652.80513 460.82237 652.94688 460.69727 653.41992 C 460.35322 654.72178 460.41692 656.20519 459.67383 657.32812 C 459.30079 657.89173 459.51971 655.98592 459.44336 655.31445 C 459.36663 655.70526 459.32476 656.1041 459.21289 656.48633 C 459.20004 656.53055 459.14793 656.33229 459.13281 656.375 C 458.95635 656.83281 458.87579 657.32239 458.71289 657.78516 C 458.64486 657.97821 458.53331 658.15225 458.44336 658.33594 C 458.30635 658.81057 458.16807 659.28513 458.03125 659.75977 C 456.44729 665.24692 462.42477 666.82762 463.60742 661.24023 C 463.89731 659.87065 463.51908 661.48148 464.2793 659.30273 C 464.34355 659.11856 464.33948 658.91642 464.39844 658.73047 C 464.53229 658.31001 464.70105 657.90241 464.84766 657.48633 C 464.88383 657.4574 464.92205 657.4154 464.95703 657.39062 C 466.01048 656.64459 467.40612 655.89079 468.49609 655.26758 C 472.52439 652.96424 471.32131 649.26831 468.06836 649.48242 z "
       transform="matrix(0.26458333,0,0,0.26458333,0,11.24999)"
       id="path4678" />
  </g>
  <g
     transform="translate(0,-11.24999)"
     id="g825"
     inkscape:groupmode="layer"
     inkscape:label="Copie de Calque 1"
     style="display:inline">
    <path
       style="fill:#305b3d;fill-opacity:1;stroke:none;stroke-width:0.26458332px;stroke-linecap:butt;stroke-linejoin:miter;stroke-opacity:1"
       d="m 140.07793,258.45411 -28.61311,-6.63871 c -5.61294,-26.42557 -5.15038,-42.65776 17.49641,-75.41026 37.82281,-5.29064 68.14111,1.23761 77.28214,17.93072 l -6.2044,26.74123 c -14.97855,-6.00734 -25.47458,-19.48556 -48.93644,-11.35406 -15.36349,11.43073 -12.74746,30.26479 -11.0246,48.73108 z"
       id="path4596"
       inkscape:connector-curvature="0"
       sodipodi:nodetypes="ccccccc" />
    <path
       style="display:inline;fill:#305b3d;fill-opacity:1;stroke:none;stroke-width:0.26458332px;stroke-linecap:butt;stroke-linejoin:miter;stroke-opacity:1"
       d="m 358.13923,59.024964 28.61311,6.63871 c 5.61294,26.425564 5.15038,42.657756 -17.49641,75.410266 -37.82281,5.29064 -68.14111,-1.23761 -77.28214,-17.93073 l 6.2044,-26.741232 c 14.97855,6.007342 25.47458,19.485562 48.93644,11.354062 15.36349,-11.430732 12.74746,-30.264792 11.0246,-48.731076 z"
       id="path4596-2"
       inkscape:connector-curvature="0"
       sodipodi:nodetypes="ccccccc" />
    <path
       style="fill:#ffffff;fill-opacity:1;stroke:none;stroke-width:0.26458332px;stroke-linecap:butt;stroke-linejoin:miter;stroke-opacity:1"
       d="m 123.02983,184.1972 c -0.35367,-0.23464 1.51664,-3.65431 4.94813,-9.03433 4.52076,-1.07719 10.56941,-2.23131 17.21084,-2.74513 7.86029,-0.60812 14.37198,-0.15124 19.47974,0.79119 4.91525,0.90692 7.74941,2.11755 7.66481,2.4403 -0.10172,0.38809 -3.07824,-0.19219 -7.82151,-0.66988 -5.05,-0.50857 -10.99857,-0.77351 -18.61413,-0.26244 -6.34429,0.42575 -12.28066,1.28965 -16.86907,2.01464 -3.24985,4.69254 -5.64605,7.69969 -5.99881,7.46565 z"
       id="path4658"
       inkscape:connector-curvature="0"
       inkscape:original-d="m 123.02983,184.1972 5.47347,-8.24999 c 15.08741,-2.98453 29.57744,-4.03373 43.83005,-0.29798"
       sodipodi:nodetypes="ccc"
       inkscape:path-effect="#path-effect4660" />
  </g>
</svg>
