<?xml version="1.0" encoding="UTF-8" standalone="no"?>
<svg
   xmlns:dc="http://purl.org/dc/elements/1.1/"
   xmlns:cc="http://creativecommons.org/ns#"
   xmlns:rdf="http://www.w3.org/1999/02/22-rdf-syntax-ns#"
   xmlns:svg="http://www.w3.org/2000/svg"
   xmlns="http://www.w3.org/2000/svg"
   xmlns:sodipodi="http://sodipodi.sourceforge.net/DTD/sodipodi-0.dtd"
   xmlns:inkscape="http://www.inkscape.org/namespaces/inkscape"
   width="480pt"
   height="290pt"
   viewBox="0 0 480 290"
   version="1.1"
   id="svg34"
   sodipodi:docname="SVGlogo.svg"
   inkscape:version="0.92.3 (2405546, 2018-03-11)">
  <metadata
     id="metadata40">
    <rdf:RDF>
      <cc:Work
         rdf:about="">
        <dc:format>image/svg+xml</dc:format>
        <dc:type
           rdf:resource="http://purl.org/dc/dcmitype/StillImage" />
        <dc:title></dc:title>
      </cc:Work>
    </rdf:RDF>
  </metadata>
  <defs
     id="defs38" />
  <sodipodi:namedview
     pagecolor="#ffffff"
     bordercolor="#666666"
     borderopacity="1"
     objecttolerance="10"
     gridtolerance="10"
     guidetolerance="10"
     inkscape:pageopacity="0"
     inkscape:pageshadow="2"
     inkscape:window-width="1360"
     inkscape:window-height="715"
     id="namedview36"
     showgrid="false"
     inkscape:zoom="1.8840741"
     inkscape:cx="259.50819"
     inkscape:cy="261.81038"
     inkscape:window-x="-8"
     inkscape:window-y="-8"
     inkscape:window-maximized="1"
     inkscape:current-layer="svg34" />
  <path
     style="fill:none;stroke:#000000;stroke-width:0.02834646;stroke-linecap:butt;stroke-linejoin:miter;stroke-opacity:1;stroke-miterlimit:4;stroke-dasharray:none"
     d="m 313.74941,23.209118 -2.87116,18.246955"
     id="path4630"
     inkscape:connector-curvature="0" />
  <path
     style="opacity:1;fill:#ffffff;fill-opacity:1;stroke:none;stroke-width:0.00761517;stroke-linecap:round;stroke-linejoin:round;stroke-miterlimit:4;stroke-dasharray:none;stroke-dashoffset:0;stroke-opacity:1;paint-order:markers stroke fill"
     d="m 553.37255,79.209174 -0.002,-16.622485 0.40831,0.906681 c 0.78072,1.733639 2.36477,6.762093 2.76285,8.770424 1.61133,8.129343 0.80753,14.923505 -2.65714,22.459699 l -0.50946,1.108165 z"
     id="path4636"
     inkscape:connector-curvature="0"
     transform="scale(0.75000001)" />
  <g
     id="g4663"
     style="fill:#f0f9f4;fill-opacity:1">
    <path
       inkscape:connector-curvature="0"
       style="fill:#f0f9f4;fill-opacity:1;fill-rule:evenodd;stroke:none"
       d="m 164.69922,95.5 15.19922,-60.148438 c -0.19922,-0.300781 0.51953,-1.636718 2.15234,-4 1.66406,-2.335937 5.5,-3.984374 11.5,-4.953124 l 109,-16.847657 c 0.76563,-0.535156 3.23438,-0.667969 7.39844,-0.402343 4.19922,0.300781 5.60156,4.066406 4.19922,11.300781 l -14.54688,91.949221 c 0.13282,0.16797 -0.10156,1.28515 -0.70312,3.35156 -0.63281,2.03516 -2.61328,3.88281 -5.94922,5.55078 0.16797,0.0977 -0.23438,1.06641 -1.19922,2.89844 -1,1.83594 -3.56641,3.94922 -7.69922,6.35156 L 236.75,162.94922 c -0.0352,0.46875 -2.19922,1.58594 -6.5,3.35156 -4.33203,1.76563 -10.64844,1.31641 -18.94922,-1.35156 L 82.351562,120.64844 C 82.050781,120.68359 80.933594,120.06641 79,118.80078 77.066406,117.53516 76.199219,115.5 76.398438,112.69922 c -0.730469,-0.59766 2.019531,-1.69922 8.25,-3.30078 L 164.69922,95.5"
       id="path8" />
    <path
       inkscape:connector-curvature="0"
       style="fill:#f0f9f4;fill-opacity:1;fill-rule:evenodd;stroke:none"
       d="m 302.55074,9.550781 -109,16.847657 c -6.03515,0.96875 -9.86718,2.617187 -11.5,4.953124 -1.66797,2.363282 -2.40234,3.699219 -2.20312,4 L 164.6484,95.5 l 124,15.85156 c 2.06641,0.76563 3.19922,1.96485 3.40234,3.59766 0.19922,1.63281 0.23047,2.55078 0.0977,2.75 l -51.30078,34.44922 c -0.16406,0.26953 -1.9336,1.35156 -5.29688,3.25 -3.36718,1.86719 -7.35156,2.96875 -11.95312,3.30078 -1.13281,0.86719 -9.06641,-0.83203 -23.79688,-5.09766 l -123.499998,-39.25 c 0.433594,2.19922 1.5,3.79688 3.199219,4.79688 1.664063,1 2.597657,1.5 2.800781,1.5 L 211.25,164.94922 c 8.30078,2.66797 14.61719,3.11719 18.94922,1.35156 4.33203,-1.73437 6.51563,-2.85156 6.55078,-3.35156 L 284,130.55078 c 4.13281,-2.40234 6.69922,-4.51562 7.69922,-6.35156 1,-1.83203 1.41797,-2.80078 1.25,-2.89844 5.13281,-3.46875 7.33203,-6.31641 6.60156,-8.55078 0,-0.23438 0,-0.35156 0,-0.35156 l 14.54688,-91.949221 c 1.40234,-7.265625 0,-11.03125 -4.19922,-11.300781 -4.16406,-0.265626 -6.61719,-0.132813 -7.34766,0.402343"
       id="path10" />
    <path
       inkscape:connector-curvature="0"
       style="fill:#f0f9f4;fill-opacity:1;fill-rule:evenodd;stroke:none"
       d="M 300.35156,20.601562 285.44922,104.44922 172.25,93.148438 186.14844,35.800781 300.35156,20.601562"
       id="path12" />
    <path
       inkscape:connector-curvature="0"
       style="fill:#f0f9f4;fill-opacity:1;fill-rule:evenodd;stroke:none"
       d="m 153.19922,100.30078 125.85156,17.84766 -3.40234,2.15234 L 148.5,101.14844 l 4.69922,-0.84766"
       id="path14" />
    <path
       inkscape:connector-curvature="0"
       style="fill:#f0f9f4;fill-opacity:1;fill-rule:evenodd;stroke:none"
       d="m 135.25,103.60156 c 0.0352,0 0.0664,0 0.10156,0 l 131.84766,22.14844 -5.59766,3.55078 -133.15234,-24.44922 6.80078,-1.25"
       id="path16" />
    <path
       inkscape:connector-curvature="0"
       style="fill:#f0f9f4;fill-opacity:1;fill-rule:evenodd;stroke:none"
       d="m 144.25,101.94922 c 0.0352,0.0352 0.082,0.0508 0.14844,0.0508 l 129.45312,19.5 -4.85156,3.10156 -129.64844,-21.75 4.89844,-0.90234"
       id="path18" />
    <path
       inkscape:connector-curvature="0"
       style="fill:#f0f9f4;fill-opacity:1;fill-rule:evenodd;stroke:none"
       d="m 124.44922,105.60156 135.35156,24.84766 -8.10156,5.19922 -137.89844,-28.09766 10.64844,-1.94922"
       id="path20" />
    <path
       inkscape:connector-curvature="0"
       style="fill:#f0f9f4;fill-opacity:1;fill-rule:evenodd;stroke:none"
       d="M 162.25,98.648438 284.05078,115 l -3.15234,2 -123.25,-17.5 4.60156,-0.851562"
       id="path22" />
    <path
       inkscape:connector-curvature="0"
       style="fill:#f0f9f4;fill-opacity:1;fill-rule:evenodd;stroke:none"
       d="M 174.05078,85.851562 186.14844,35.800781 281.75,23.101562 C 273.11719,32.898438 259.81641,44 241.85156,56.398438 223.91797,68.765625 201.31641,78.582031 174.05078,85.851562"
       id="path26" />
    <path
       inkscape:connector-curvature="0"
       id="path4640"
       d="m 178.28802,41.718205 -2.32076,9.393553"
       style="fill:#f0f9f4;stroke:#000000;stroke-width:0.02834646;stroke-linecap:butt;stroke-linejoin:miter;stroke-miterlimit:4;stroke-dasharray:none;stroke-opacity:1;fill-opacity:1" />
  </g>
  <path
     style="opacity:1;fill:#0496d1;fill-opacity:1;stroke:none;stroke-width:0.0243802;stroke-linecap:round;stroke-linejoin:round;stroke-miterlimit:4;stroke-dasharray:none;stroke-dashoffset:0;stroke-opacity:1;paint-order:markers stroke fill"
     d="m 288.679,221.64055 c -5.75273,-1.26689 -178.88977,-60.81896 -181.97392,-62.59159 -2.23276,-1.28328 -5.19969,-5.23399 -4.47495,-5.95874 0.1191,-0.1191 36.79606,11.40719 81.50436,25.61398 83.77146,26.61976 95.38746,30.16206 106.0021,32.3254 5.81181,1.18448 6.57914,1.20431 11.74453,0.30354 6.38242,-1.113 10.31022,-2.54336 15.32128,-5.57944 1.96126,-1.18828 19.14128,-12.61047 38.17783,-25.38265 l 34.61191,-23.22214 0.0194,-2.27544 c 0.0213,-2.51217 -1.2527,-4.74245 -3.35043,-5.86512 -0.75263,-0.40279 -38.35218,-5.4601 -83.55456,-11.23846 -45.20237,-5.77836 -82.32135,-10.64131 -82.4866,-10.80657 -0.47619,-0.47619 19.61049,-79.891638 20.78017,-82.157265 1.70667,-3.30573 4.91816,-5.944162 8.96764,-7.367438 2.16439,-0.760722 16.96031,-3.371918 34.47522,-6.084214 16.87592,-2.613348 50.56746,-7.873162 74.87008,-11.688475 45.65804,-7.167942 52.90116,-8.021162 56.26491,-6.627853 2.24472,0.929791 3.72562,3.88052 3.72562,7.423359 0,1.300351 -4.49929,30.808709 -9.99842,65.574129 -5.49914,34.765417 -9.99951,63.972167 -10.00084,64.903897 -0.003,2.47634 -2.08242,5.4861 -5.71421,8.27286 -1.75754,1.34861 -3.37474,3.11245 -3.59377,3.91965 -0.72196,2.66069 -5.02432,6.63647 -12.88269,11.90481 -12.38993,8.30637 -61.24709,41.84862 -62.3115,42.77917 -0.53317,0.4661 -3.19402,1.73825 -5.913,2.82698 -4.29017,1.71787 -5.69676,1.97095 -10.64168,1.91474 -3.13394,-0.0356 -7.43974,-0.44833 -9.56843,-0.91712 z m 92.16981,-83.35963 c 0.53851,-1.81044 19.78497,-110.646372 19.59639,-110.814753 -0.094,-0.08394 -5.10562,0.506502 -11.13693,1.312088 -6.0313,0.805587 -40.13882,5.313909 -75.79448,10.018494 -35.65566,4.704586 -65.02539,8.73004 -65.26607,8.945453 -0.53921,0.482622 -18.85992,76.138418 -18.5161,76.462678 0.22587,0.21302 145.07231,14.89886 149.05097,15.11214 1.14397,0.0613 1.84424,-0.28983 2.06622,-1.0361 z"
     id="path4678"
     inkscape:connector-curvature="0"
     transform="scale(0.75000001)" />
  <path
     style="opacity:1;fill:#4a4a4a;fill-opacity:1;stroke:none;stroke-width:0.0243802;stroke-linecap:round;stroke-linejoin:round;stroke-miterlimit:4;stroke-dasharray:none;stroke-dashoffset:0;stroke-opacity:1;paint-order:markers stroke fill"
     d="m 287.71141,210.28167 c -11.34193,-2.60269 -19.97796,-5.27648 -133.84984,-41.44095 -49.16101,-15.613 -51.60475,-16.46117 -51.60475,-17.91082 0,-1.30953 0.62958,-1.73317 4.51541,-3.03836 4.2875,-1.44011 109.71177,-20.24429 113.20794,-20.19253 2.55334,0.0378 146.55345,18.53942 159.44391,20.4859 7.69627,1.16214 9.08714,2.03425 9.82171,6.15842 l 0.41943,2.35489 -36.8329,24.63237 c -20.2581,13.5478 -38.68766,25.50031 -40.9546,26.56113 -4.14225,1.9384 -12.22202,3.75053 -16.4256,3.68394 -1.24174,-0.0197 -4.72506,-0.60197 -7.74071,-1.29399 z m 53.29746,-32.52421 c 3.0532,-1.96964 5.42314,-3.7093 5.26653,-3.86591 -0.35216,-0.35216 -2.64403,-0.78043 -100.17033,-18.71847 l -79.34231,-14.59345 -6.77312,1.09962 c -3.72522,0.60479 -7.13595,1.2965 -7.5794,1.53713 -0.44345,0.24063 40.48557,8.88386 90.95338,19.20719 50.46782,10.32332 91.83488,18.80239 91.92682,18.84237 0.0919,0.04 2.66523,-1.53883 5.71843,-3.50848 z m -130.38207,1.05825 c 3.50621,-0.50896 24.38152,-7.46465 27.64577,-9.21163 1.30661,-0.69927 1.28921,-0.74763 -0.57036,-1.58474 -3.10265,-1.39672 -64.89983,-14.41885 -68.39264,-14.41196 -3.77935,0.007 -28.27444,6.46652 -28.10856,7.41189 0.0942,0.53708 39.79747,12.79993 55.23449,17.05987 5.03431,1.38925 8.4674,1.56744 14.1913,0.73657 z m 143.35648,-9.35957 c 2.05623,-1.32052 2.69428,-2.30881 1.49059,-2.30881 -0.3376,0 -39.59753,-6.55622 -87.24429,-14.56937 -72.53737,-12.19922 -87.24097,-14.50185 -90.38334,-14.15432 -3.23571,0.35785 -7.21611,1.39447 -6.24553,1.62653 0.17739,0.0424 40.09044,7.41898 88.69567,16.39236 82.38895,15.21045 88.48235,16.24887 89.9858,15.33504 0.88695,-0.53911 2.55245,-1.58375 3.7011,-2.32143 z m 7.8671,-4.98547 c 1.79749,-1.11738 3.26697,-2.20591 3.26551,-2.41897 -10e-4,-0.21306 -38.97112,-6.24643 -86.59924,-13.40749 -78.37585,-11.7841 -86.90275,-12.95371 -89.82187,-12.32064 -1.77391,0.38471 -2.78988,0.85084 -2.2577,1.03584 0.68397,0.23777 167.58818,28.50605 171.70421,29.08124 0.24252,0.0339 1.91161,-0.8526 3.70909,-1.96998 z m 8.25507,-5.3628 c 1.5762,-1.07105 2.03805,-1.68503 1.41716,-1.88395 -0.50658,-0.1623 -38.23189,-5.56138 -83.83403,-11.99797 -65.29064,-9.21554 -83.63247,-11.60743 -86.29825,-11.2538 -1.8619,0.24699 -3.20995,0.6281 -2.99565,0.84691 0.30825,0.31475 165.32984,25.59609 168.532,25.81913 0.4623,0.0322 1.89275,-0.65644 3.17877,-1.53032 z m 6.56781,-4.0554 c 1.86333,-1.06053 2.59474,-2.08283 1.50774,-2.10737 -0.26609,-0.006 -36.85614,-4.90229 -81.31122,-10.88062 -69.74671,-9.37955 -81.24286,-10.7797 -83.85773,-10.21327 -1.66667,0.36103 -2.59489,0.80742 -2.06272,0.99198 1.05655,0.36641 160.0632,23.15801 162.34145,23.2696 0.76951,0.0377 2.29162,-0.43945 3.38248,-1.06032 z"
     id="path4680"
     inkscape:connector-curvature="0"
     transform="scale(0.75000001)" />
  <path
     style="opacity:1;fill:#f0f9f4;fill-opacity:1;stroke:none;stroke-width:0.0243802;stroke-linecap:round;stroke-linejoin:round;stroke-miterlimit:4;stroke-dasharray:none;stroke-dashoffset:0;stroke-opacity:1;paint-order:markers stroke fill"
     d="m 244.68679,162.09823 c -49.74007,-10.16473 -90.08854,-18.66475 -89.66327,-18.88893 0.42528,-0.22418 3.12555,-0.78077 6.0006,-1.23687 l 5.22737,-0.82927 88.95131,16.31179 c 48.92322,8.97148 89.17467,16.43957 89.44767,16.59574 0.4049,0.23164 -8.91918,6.77416 -9.38588,6.58588 -0.0777,-0.0314 -40.83773,-8.37361 -90.5778,-18.53834 z"
     id="path4682"
     inkscape:connector-curvature="0"
     transform="scale(0.75000001)" />
  <path
     style="opacity:1;fill:#f0f9f4;fill-opacity:1;stroke:none;stroke-width:0.0243802;stroke-linecap:round;stroke-linejoin:round;stroke-miterlimit:4;stroke-dasharray:none;stroke-dashoffset:0;stroke-opacity:1;paint-order:markers stroke fill"
     d="m 265.13433,156.80814 c -43.81566,-8.09206 -82.42247,-15.22163 -85.79291,-15.84349 -6.03636,-1.11372 -6.08945,-1.13938 -3.54783,-1.71492 1.41914,-0.32136 4.20169,-0.44866 6.18346,-0.28289 4.60612,0.38528 170.13813,28.0876 171.82807,28.75598 1.10627,0.43754 0.89655,0.71646 -1.66933,2.22017 -1.76867,1.0365 -3.80901,1.6916 -5.13559,1.64888 -1.21057,-0.039 -38.05021,-6.69166 -81.86587,-14.78373 z"
     id="path4684"
     inkscape:connector-curvature="0"
     transform="scale(0.75000001)" />
  <path
     style="opacity:1;fill:#f0f9f4;fill-opacity:1;stroke:none;stroke-width:0.0243802;stroke-linecap:round;stroke-linejoin:round;stroke-miterlimit:4;stroke-dasharray:none;stroke-dashoffset:0;stroke-opacity:1;paint-order:markers stroke fill"
     d="m 272.36521,151.43757 c -60.82697,-10.26028 -84.09204,-14.41095 -82.56761,-14.7307 1.20332,-0.2524 5.754,0.0855 10.50825,0.7802 27.13178,3.96472 163.16948,24.57673 163.34178,24.74904 0.3666,0.36659 -4.92299,3.62348 -5.77218,3.55403 -0.45108,-0.0369 -38.93069,-6.49555 -85.51024,-14.35257 z"
     id="path4686"
     inkscape:connector-curvature="0"
     transform="scale(0.75000001)" />
  <path
     style="opacity:1;fill:#f0f9f4;fill-opacity:1;stroke:none;stroke-width:0.0243802;stroke-linecap:round;stroke-linejoin:round;stroke-miterlimit:4;stroke-dasharray:none;stroke-dashoffset:0;stroke-opacity:1;paint-order:markers stroke fill"
     d="m 283.71497,147.55165 c -73.50521,-11.1274 -92.06293,-14.23742 -78.24864,-13.11338 2.48348,0.20207 40.4196,5.4672 84.3025,11.70029 43.88289,6.23308 80.16748,11.33933 80.63243,11.34722 0.46494,0.008 0.11966,0.58199 -0.7673,1.27578 -0.88696,0.69379 -2.1932,1.23906 -2.90277,1.21171 -0.70956,-0.0273 -38.06687,-5.61707 -83.01622,-12.42162 z"
     id="path4688"
     inkscape:connector-curvature="0"
     transform="scale(0.75000001)" />
  <path
     style="opacity:1;fill:#f0f9f4;fill-opacity:1;stroke:none;stroke-width:0.0243802;stroke-linecap:round;stroke-linejoin:round;stroke-miterlimit:4;stroke-dasharray:none;stroke-dashoffset:0;stroke-opacity:1;paint-order:markers stroke fill"
     d="m 291.58177,143.92777 c -70.39617,-10.12763 -82.57222,-12.05509 -73.53678,-11.64085 2.54423,0.11664 155.57707,20.49283 157.95757,21.03191 1.4677,0.33237 1.48097,0.38425 0.32253,1.26151 -0.66447,0.50319 -2.07896,0.89095 -3.1433,0.8617 -1.06435,-0.0293 -37.78436,-5.21068 -81.60002,-11.51427 z"
     id="path4690"
     inkscape:connector-curvature="0"
     transform="scale(0.75000001)" />
  <path
     style="opacity:1;fill:#cf3333;fill-opacity:1;stroke:none;stroke-width:0.0100302;stroke-linecap:round;stroke-linejoin:round;stroke-miterlimit:4;stroke-dasharray:none;stroke-dashoffset:0;stroke-opacity:1;paint-order:markers stroke fill"
     d="m 377.05582,139.07044 c -22.79003,-2.18937 -142.98031,-14.39937 -146.02664,-14.83469 -0.62033,-0.0886 -1.12788,-0.28251 -1.12788,-0.43082 0,-1.50819 17.4232,-73.365651 18.29804,-75.465526 0.15802,-0.37929 0.56106,-0.611352 1.25111,-0.720362 6.20596,-0.980383 43.04443,-5.936185 102.92481,-13.84626 43.43681,-5.737914 47.67971,-6.281994 47.82849,-6.133208 0.17547,0.175469 -6.51605,38.593949 -14.63453,84.022296 -4.68367,26.20822 -4.81087,26.85578 -5.35347,27.25254 -0.46334,0.3388 -0.98778,0.3647 -3.15993,0.15603 z"
     id="path4698"
     inkscape:connector-curvature="0"
     transform="scale(0.75000001)"
     inkscape:export-xdpi="98"
     inkscape:export-ydpi="98" />
</svg>
