<svg xmlns="http://www.w3.org/2000/svg" width="480pt" height="290pt" viewBox="0 0 480 290" version="1.1" xmlns:xlink="http://www.w3.org/1999/xlink">
  <g id="surface2" transform="matrix(1,0,0,1,-0.5,-0.5)">
    <path style="stroke:none;fill-rule:evenodd;fill:rgb(65.490196%,65.490196%,65.490196%);fill-opacity:1" d="M 409.949219 82.851562 C 410.785156 82.382812 412.898438 78.382812 416.300781 70.851562 C 419.699219 63.351562 419.300781 55.183594 415.101562 46.351562 C 410.933594 37.515625 397.898438 30.867188 376 26.398438 C 354.132812 21.933594 318.332031 22.5 268.601562 28.101562 C 218.867188 33.734375 150.148438 47.25 62.449219 68.648438 C 63.382812 68.316406 75.535156 65.867188 98.898438 61.300781 C 122.265625 56.734375 151.199219 52.035156 185.699219 47.199219 C 220.234375 42.332031 254.683594 39.316406 289.050781 38.148438 C 323.449219 36.984375 352.117188 39.632812 375.050781 46.101562 C 398.015625 52.566406 409.648438 64.816406 409.949219 82.851562 "/>
    <path style="stroke:none;fill-rule:evenodd;fill:rgb(34.901961%,34.901961%,34.901961%);fill-opacity:1" d="M 383.75 118.300781 C 384.550781 117.867188 386.800781 113.984375 390.5 106.648438 C 394.199219 99.285156 394.417969 90.949219 391.148438 81.648438 C 387.917969 72.382812 376.316406 64.667969 356.351562 58.5 C 336.351562 52.332031 303.082031 50.234375 256.550781 52.199219 C 210.015625 54.132812 145.316406 62.667969 62.449219 77.800781 C 63.316406 77.535156 74.617188 75.898438 96.351562 72.898438 C 118.117188 69.898438 145.015625 67.167969 177.050781 64.699219 C 209.117188 62.265625 241.082031 61.714844 272.949219 63.050781 C 304.785156 64.382812 331.25 69.25 352.351562 77.648438 C 373.449219 86.050781 383.917969 99.601562 383.75 118.300781 "/>
    <path style="stroke:none;fill-rule:evenodd;fill:rgb(0.392157%,0.392157%,0.392157%);fill-opacity:1" d="M 356.75 158.550781 C 357.550781 158.148438 360.101562 154.101562 364.398438 146.398438 C 368.734375 138.699219 369.984375 129.667969 368.148438 119.300781 C 366.316406 108.964844 356.617188 99.632812 339.050781 91.300781 C 321.449219 82.964844 291.148438 78 248.148438 76.398438 C 205.148438 74.765625 144.632812 78.832031 66.601562 88.601562 C 67.433594 88.398438 77.882812 87.765625 97.949219 86.699219 C 118.050781 85.632812 142.832031 85.300781 172.300781 85.699219 C 201.765625 86.132812 231 88.449219 260 92.648438 C 288.964844 96.882812 312.75 104.199219 331.351562 114.601562 C 349.917969 125 358.382812 139.648438 356.75 158.550781 "/>
    <path style="stroke:none;fill-rule:evenodd;fill:rgb(76.078431%,91.764706%,80.000000%);fill-opacity:1" d="M 165.199219 96 L 180.398438 35.851562 C 180.199219 35.550781 180.917969 34.214844 182.550781 31.851562 C 184.214844 29.515625 188.050781 27.867188 194.050781 26.898438 L 303.050781 10.050781 C 303.816406 9.515625 306.285156 9.382812 310.449219 9.648438 C 314.648438 9.949219 316.050781 13.714844 314.648438 20.949219 L 300.101562 112.898438 C 300.234375 113.066406 300 114.183594 299.398438 116.25 C 298.765625 118.285156 296.785156 120.132812 293.449219 121.800781 C 293.617188 121.898438 293.214844 122.867188 292.25 124.699219 C 291.25 126.535156 288.683594 128.648438 284.550781 131.050781 L 237.25 163.449219 C 237.214844 163.917969 235.050781 165.035156 230.75 166.800781 C 226.417969 168.566406 220.101562 168.117188 211.800781 165.449219 L 82.851562 121.148438 C 82.550781 121.183594 81.433594 120.566406 79.5 119.300781 C 77.566406 118.035156 76.699219 116 76.898438 113.199219 C 76.167969 112.601562 78.917969 111.5 85.148438 109.898438 L 165.199219 96 "/>
    <path style="stroke:none;fill-rule:evenodd;fill:rgb(65.490196%,65.490196%,65.490196%);fill-opacity:1" d="M 303.101562 10.050781 L 194.101562 26.898438 C 188.066406 27.867188 184.234375 29.515625 182.601562 31.851562 C 180.933594 34.214844 180.199219 35.550781 180.398438 35.851562 L 165.199219 96 L 289.199219 111.851562 C 291.265625 112.617188 292.398438 113.816406 292.601562 115.449219 C 292.800781 117.082031 292.832031 118 292.699219 118.199219 L 241.398438 152.648438 C 241.234375 152.917969 239.464844 154 236.101562 155.898438 C 232.734375 157.765625 228.75 158.867188 224.148438 159.199219 C 223.015625 160.066406 215.082031 158.367188 200.351562 154.101562 L 76.851562 114.851562 C 77.285156 117.050781 78.351562 118.648438 80.050781 119.648438 C 81.714844 120.648438 82.648438 121.148438 82.851562 121.148438 L 211.800781 165.449219 C 220.101562 168.117188 226.417969 168.566406 230.75 166.800781 C 235.082031 165.066406 237.265625 163.949219 237.300781 163.449219 L 284.550781 131.050781 C 288.683594 128.648438 291.25 126.535156 292.25 124.699219 C 293.25 122.867188 293.667969 121.898438 293.5 121.800781 C 298.632812 118.332031 300.832031 115.484375 300.101562 113.25 C 300.101562 113.015625 300.101562 112.898438 300.101562 112.898438 L 314.648438 20.949219 C 316.050781 13.683594 314.648438 9.917969 310.449219 9.648438 C 306.285156 9.382812 303.832031 9.515625 303.101562 10.050781 "/>
    <path style="stroke:none;fill-rule:evenodd;fill:rgb(66.666667%,85.098039%,93.725490%);fill-opacity:1" d="M 300.851562 21.101562 L 285.949219 104.949219 L 172.75 93.648438 L 186.648438 36.300781 L 300.851562 21.101562 "/>
    <path style="stroke:none;fill-rule:evenodd;fill:rgb(6.666667%,12.156863%,27.450980%);fill-opacity:1" d="M 153.699219 100.800781 L 279.550781 118.648438 L 276.148438 120.800781 L 149 101.648438 L 153.699219 100.800781 "/>
    <path style="stroke:none;fill-rule:evenodd;fill:rgb(6.666667%,12.156863%,27.450980%);fill-opacity:1" d="M 135.75 104.101562 C 135.785156 104.101562 135.816406 104.101562 135.851562 104.101562 L 267.699219 126.25 L 262.101562 129.800781 L 128.949219 105.351562 L 135.75 104.101562 "/>
    <path style="stroke:none;fill-rule:evenodd;fill:rgb(6.666667%,12.156863%,27.450980%);fill-opacity:1" d="M 144.75 102.449219 C 144.785156 102.484375 144.832031 102.5 144.898438 102.5 L 274.351562 122 L 269.5 125.101562 L 139.851562 103.351562 L 144.75 102.449219 "/>
    <path style="stroke:none;fill-rule:evenodd;fill:rgb(6.666667%,12.156863%,27.450980%);fill-opacity:1" d="M 124.949219 106.101562 L 260.300781 130.949219 L 252.199219 136.148438 L 114.300781 108.050781 L 124.949219 106.101562 "/>
    <path style="stroke:none;fill-rule:evenodd;fill:rgb(6.666667%,12.156863%,27.450980%);fill-opacity:1" d="M 162.75 99.148438 L 284.550781 115.5 L 281.398438 117.5 L 158.148438 100 L 162.75 99.148438 "/>
    <path style="stroke:none;fill-rule:evenodd;fill:rgb(6.666667%,12.156863%,27.450980%);fill-opacity:1" d="M 123.300781 116.398438 C 124.667969 116.035156 126.101562 115.851562 127.601562 115.851562 C 130.234375 116.015625 131.632812 116.183594 131.800781 116.351562 L 178.050781 126.300781 C 179.316406 126.867188 179.851562 127.167969 179.648438 127.199219 C 179.449219 127.433594 178.917969 127.714844 178.050781 128.050781 L 162.699219 133.449219 C 162.167969 133.949219 159.316406 134.417969 154.148438 134.851562 C 152.082031 134.851562 150.214844 134.601562 148.550781 134.101562 L 106.898438 121.648438 C 106.632812 121.449219 106.433594 121.265625 106.300781 121.101562 C 106.332031 121.035156 106.515625 120.949219 106.851562 120.851562 L 123.300781 116.398438 "/>
    <path style="stroke:none;fill-rule:evenodd;fill:rgb(100.000000%,100.000000%,100.000000%);fill-opacity:1" d="M 174.550781 86.351562 L 186.648438 36.300781 L 282.25 23.601562 C 273.617188 33.398438 260.316406 44.5 242.351562 56.898438 C 224.417969 69.265625 201.816406 79.082031 174.550781 86.351562 "/>
  </g>
  <g id="surface4">
    <text style="fill:rgb(0,42,70)" font-family="Helvetica" font-size="49" transform="matrix(1,0,0,1,10.06128,216.75)" xml:space="preserve"><![CDATA[Lormont Informatique]]></text>
    <text style="fill:rgb(0,42,70)" font-family="Helvetica" font-size="35" transform="matrix(1,0,0,1,151.87622,274.25)" xml:space="preserve"><![CDATA[Association]]></text>
  </g>
</svg>